<svg width="205" height="44" viewBox="0 0 205 44" fill="none" xmlns="http://www.w3.org/2000/svg">
<path d="M70.3723 12.2322V19.756C69.3658 18.4587 67.9077 17.2915 65.6038 17.2915C62.2667 17.2915 59.1133 19.9168 59.1133 24.578C59.1133 29.2393 62.3203 31.8646 65.6038 31.8646C67.8809 31.8646 69.339 30.7012 70.3723 29.2431V31.5738H73.5793V12.2322H70.3723ZM66.3731 29.0824C64.1993 29.0824 62.3471 27.3335 62.3471 24.578C62.3471 21.8226 64.1764 20.0737 66.3731 20.0737C68.5698 20.0737 70.4258 21.8494 70.4258 24.578C70.4258 27.3067 68.52 29.0824 66.3731 29.0824ZM77.4675 17.5861V31.5738H80.6745V17.5861H77.4675ZM77.3336 12.236V15.2823H80.7778V12.236H77.3336ZM89.2891 31.8416C87.3029 31.8416 85.1023 31.126 83.3534 29.7483L84.7847 27.5746C86.2964 28.715 87.9381 29.2967 89.3656 29.2967C90.7931 29.2967 91.5393 28.7112 91.5393 27.785V27.7315C91.5393 26.6446 90.0545 26.2734 88.4127 25.772C86.3461 25.1903 84.0423 24.3408 84.0423 21.6657V21.6121C84.0423 18.9638 86.2428 17.345 89.0212 17.345C90.7701 17.345 92.6759 17.9535 94.1608 18.9332L92.8903 21.2103C91.5393 20.3875 90.108 19.8861 88.9408 19.8861C87.697 19.8861 86.9814 20.4678 86.9814 21.2907V21.3442C86.9814 22.3507 88.493 22.7755 90.1348 23.3036C92.1746 23.9389 94.4823 24.8651 94.4823 27.3832V27.433C94.4823 30.3759 92.2014 31.8302 89.2891 31.8302V31.8416ZM103.786 31.8952C99.6257 31.8952 96.5527 28.6385 96.5527 24.6354C96.5527 20.6324 99.6257 17.2991 103.812 17.2991C106.461 17.2991 108.103 18.2788 109.404 19.7101L107.417 21.857C106.438 20.8238 105.404 20.1081 103.789 20.1081C101.459 20.1081 99.7635 22.1211 99.7635 24.5857C99.7635 27.0503 101.486 29.1168 103.95 29.1168C105.462 29.1168 106.572 28.4012 107.582 27.3679L109.515 29.2776C108.137 30.8122 106.522 31.8991 103.793 31.8991L103.786 31.8952ZM118.378 17.2991C114.088 17.2991 110.908 20.6094 110.908 24.6354C110.908 28.6614 114.061 31.8952 118.324 31.8952C122.588 31.8952 125.821 28.5849 125.821 24.5819C125.821 20.5788 122.668 17.2953 118.378 17.2953V17.2991ZM118.378 29.113C115.887 29.113 114.115 27.0732 114.115 24.5819C114.115 22.0905 115.756 20.1043 118.328 20.1043C120.9 20.1043 122.618 22.1441 122.618 24.6354C122.618 27.1268 120.976 29.113 118.378 29.113ZM141.053 17.59L135.332 31.6847H132.446L126.698 17.59H130.142L133.904 27.8692L137.693 17.59H141.057H141.053ZM155.507 24.8497C155.507 20.797 153.257 17.2991 148.806 17.2991C144.807 17.2991 141.971 20.5827 141.971 24.6125C141.971 28.9561 145.098 31.8952 149.151 31.8952C151.719 31.8952 153.548 30.8619 154.872 29.2737L152.993 27.6052C151.879 28.692 150.766 29.2737 149.204 29.2737C147.138 29.2737 145.55 28.0032 145.178 25.7223H155.458C155.484 25.4047 155.511 25.1406 155.511 24.8497H155.507ZM145.148 23.606C145.439 21.4323 146.816 19.9244 148.78 19.9244C150.9 19.9244 152.117 21.5394 152.327 23.606H145.148ZM161.73 31.5814H158.523V17.5861H161.73V20.7396C162.603 18.6462 164.221 17.2149 166.682 17.3221V20.7128H166.498C163.689 20.7128 161.73 22.5421 161.73 26.2504V31.5776V31.5814ZM177.176 31.9794C176.062 34.8382 174.818 35.9021 172.564 35.9021C171.213 35.9021 170.234 35.5844 169.254 35.0525L170.341 32.6683C170.922 32.9859 171.562 33.2002 172.224 33.2002C173.123 33.2002 173.682 32.8022 174.21 31.5852L168.381 17.5976H171.799L175.771 27.9802L179.403 17.5976H182.74L177.176 31.9832V31.9794ZM196.368 31.5814H193.525V23.4146H185.358V20.5712H193.525V12.2322H196.368V20.5597H204.535V23.4031H196.368V31.5699V31.5814Z" fill="#BDB4FE"/>
<path d="M16.8091 14.6709C9.58372 14.6709 3.72461 20.5262 3.72461 27.7515C3.72461 34.9769 9.58372 40.836 16.8091 40.836C24.0344 40.836 29.8897 34.9769 29.8897 27.7515C29.8897 20.5262 24.0344 14.6709 16.8091 14.6709Z" fill="#BDB4FE"/>
<path d="M44.8002 6.73375C40.6479 2.81491 35.2174 0.656494 29.4999 0.656494H14.0542V1.80459L14.0427 12.0494C10.5793 12.6732 7.37995 14.4681 5.00339 17.1278C2.37426 20.067 0.923828 23.8327 0.923828 27.7286C0.923828 32.2789 2.73399 36.4273 6.01754 39.4124C8.98346 42.1104 12.9329 43.6565 16.8556 43.6565H29.4999C35.2748 43.6565 40.713 41.5517 44.8079 37.7247C49.0826 33.7216 51.4362 28.1916 51.4362 22.1603C51.4362 16.129 49.0788 10.7942 44.8002 6.73375ZM29.4999 42.5084H16.8556C13.2161 42.5084 9.54985 41.0695 6.7906 38.5628C3.74814 35.7959 2.07192 31.9497 2.07192 27.7286C2.07192 20.2468 7.80092 13.8749 15.1908 13.0406L15.2023 1.80459H29.4999C34.9266 1.80459 40.0777 3.85203 44.008 7.56803C48.057 11.4065 50.2881 16.5882 50.2881 22.1603C50.2881 27.7324 48.0608 33.1055 44.0233 36.8866C40.1428 40.5107 34.9878 42.5084 29.4999 42.5084Z" fill="#BDB4FE"/>
<path d="M48.6263 22.038C48.6263 32.3326 40.2796 40.6792 29.985 40.6792H23.7585C24.1642 40.4687 24.5583 40.2353 24.9372 39.9865C28.99 37.3536 31.6689 32.788 31.6689 27.5947C31.6689 19.4394 25.0635 12.8302 16.9082 12.8226V3.39673H29.985C40.2796 3.39673 48.6263 11.7434 48.6263 22.038Z" fill="#BDB4FE"/>
</svg>
