<svg width="261" height="38" viewBox="0 0 261 38" fill="none" xmlns="http://www.w3.org/2000/svg">
<path d="M111.775 27.3305C108.601 30.5045 104.199 32.1427 99.796 32.0403C88.0215 32.0403 83.4141 24.6685 83.4141 16.4775C83.4141 8.79841 88.5334 0.607422 99.796 0.607422C104.199 0.607422 108.294 2.24562 111.366 5.41963L106.144 10.539C104.506 8.79841 102.151 7.87692 99.796 7.87692C94.0623 7.87692 91.7074 12.5867 91.8098 16.4775C91.9122 20.3682 93.8576 24.7708 99.796 24.7708C102.458 24.6685 105.018 23.6446 106.861 21.6992L111.775 27.3305Z" fill="#BDB4FE"/>
<path d="M137.269 31.2222H113.311V1.22266H136.655V8.28738H121.604V12.5877H135.733V19.4476H121.604V24.055H137.269V31.2222Z" fill="#BDB4FE"/>
<path d="M159.488 17.6046C159.283 14.0211 159.283 12.69 159.283 11.4614V1.22266H167.782V31.2222H160.614L148.123 15.0449L148.226 21.5977V31.2222H139.625V1.22266H146.792L159.488 17.6046Z" fill="#BDB4FE"/>
<path d="M179.247 8.185H170.441V1.22266H196.345V8.185H187.54V31.2222H179.144L179.247 8.185Z" fill="#BDB4FE"/>
<path d="M226.856 31.2222H217.539L210.577 21.4954H207.608V31.2222H199.109V1.22266H213.751C221.43 1.22266 225.423 6.13725 225.423 11.5638C225.423 15.2497 224.092 18.3213 219.075 20.5739L226.856 30.7102V31.2222ZM207.608 7.98022V15.1473H213.853C216.106 15.1473 217.027 13.5091 217.027 11.6662C217.027 9.82319 216.003 7.98022 213.751 7.98022H207.608Z" fill="#BDB4FE"/>
<path d="M243.853 31.938C234.024 31.938 227.164 26.2043 227.164 16.2727C227.164 6.4435 234.024 0.607422 243.853 0.607422C253.682 0.607422 260.542 6.34111 260.542 16.2727C260.542 26.2043 253.785 31.938 243.853 31.938ZM243.853 7.77454C239.041 7.77454 235.662 11.2557 235.662 16.2727C235.662 21.2897 239.041 24.7708 243.853 24.7708C248.768 24.7708 252.044 21.2897 252.044 16.2727C252.044 11.0509 248.87 7.77454 243.853 7.77454Z" fill="#BDB4FE"/>
<path d="M21.2631 21.1233L21.8775 19.5875L22.287 18.666L22.3894 18.3588L22.799 17.4373L24.2324 13.9562L24.7443 12.7275V12.318H12.4578V10.2702H25.1539V0.850586H0.478516V31.5668H12.4578V21.3281H21.2631V21.1233Z" fill="#BDB4FE"/>
<path d="M69.588 0.850586V6.48189V12.9323L61.909 0.850586H51.875V12.5227L51.9774 12.8299L53.8204 17.335L54.2299 18.2564L54.3323 18.5636L54.7418 19.4851L58.9397 30.031L59.5541 31.4644H63.9567V26.1403V19.2803L71.5334 31.362H81.5673V0.850586H69.588Z" fill="#BDB4FE"/>
<path d="M27.9166 37.6077L29.7596 29.6214L19.1113 31.874L19.6233 30.6453L23.514 20.9185L24.0259 19.5875L24.3331 18.7684L24.4355 18.4612L24.7426 17.6421L25.9713 14.6729L31.6026 0.850586H45.3225L50.5443 13.7514L52.0801 17.6421L52.3872 18.4612L52.4896 18.7684L52.7968 19.5875L56.3803 28.7L57.1994 30.6453L57.609 31.874L47.0631 29.6214L48.9061 37.6077L38.3602 29.9286L27.9166 37.6077ZM26.5856 18.5636L33.9575 23.8877L31.6026 31.1572L31.0906 32.5907L37.9506 27.5737L38.4625 27.2665L38.9745 27.5737L45.8344 32.5907L45.4249 31.1572L43.07 23.8877L50.4419 18.5636H41.3294L38.5649 9.96306L35.8005 18.5636H26.5856Z" fill="#BDB4FE"/>
</svg>
