<svg width="258" height="46" viewBox="0 0 258 46" fill="none" xmlns="http://www.w3.org/2000/svg">
<path d="M17.5786 2.44238C8.12859 2.44233 0.459033 10.1118 0.458984 19.5618C0.458936 29.0118 8.12842 36.6814 17.5784 36.6814C27.0285 36.6815 34.698 29.012 34.6981 19.562C34.6981 10.112 27.0286 2.44243 17.5786 2.44238ZM17.5785 24.6978C14.7367 24.6978 12.4426 22.4036 12.4427 19.5619C12.4427 16.72 14.7367 14.426 17.5785 14.4261C20.4203 14.4261 22.7144 16.72 22.7144 19.5619C22.7144 22.4036 20.4203 24.6978 17.5785 24.6978Z" fill="#BDB4FE"/>
<path d="M36.8205 15.2821C41.1696 16.5334 46.3048 15.2821 46.3048 15.2821C44.8152 21.7876 40.0903 25.8619 33.2767 26.3584C30.6575 32.4359 24.6142 36.6815 17.5781 36.6815L22.714 20.3582C27.9935 3.5788 30.6994 2.44232 43.2203 2.44238L51.8172 2.44242C50.3791 8.77659 45.4231 13.6159 36.8205 15.2821Z" fill="#BDB4FE"/>
<path d="M83.4771 2.859C73.9095 2.859 69.1405 9.91337 69.1406 19.5399C69.1406 29.2777 73.8374 36.2653 83.4771 36.2653C93.0469 36.2653 97.8598 29.2777 97.8598 19.5399C97.8597 9.74877 93.2467 2.859 83.4771 2.859ZM83.4771 30.7515C77.9973 30.7515 77.0445 25.0233 77.0445 19.5399C77.0445 14.0154 77.9504 8.374 83.4771 8.374C89.0223 8.374 89.9564 13.9738 89.9564 19.5399C89.9564 25.1399 89.0631 30.7515 83.4771 30.7515ZM116.171 10.3037C113.059 10.3037 110.728 11.6249 108.727 13.9799L108.554 12.9868C108.362 11.8871 107.407 11.0842 106.29 11.0842H101.88L101.88 34.3357C101.88 34.9701 102.395 35.4845 103.029 35.4845H109.14V19.5106C109.14 19.0508 109.269 18.5914 109.536 18.2167C110.764 16.494 112.041 15.6334 113.368 15.6334C115.269 15.6334 115.666 17.0107 115.666 18.8957V34.3357C115.666 34.9701 116.18 35.4842 116.814 35.4842H122.926L122.926 17.6562C122.926 12.8311 120.261 10.3037 116.171 10.3037ZM136.598 30.4814C136.457 30.5051 136.319 30.5213 136.205 30.5213C135.378 30.5213 134.965 30.0164 134.965 29.0059V0.607422L128.73 1.27891C128.146 1.34168 127.704 1.83406 127.704 2.42102V29.2804C127.704 33.8935 130.312 36.2653 134.413 36.2653C136.037 36.2653 137.507 35.9903 138.824 35.4385L137.635 31.1429C137.51 30.6884 137.063 30.403 136.598 30.4814ZM155.554 11.0842C155.023 11.0842 154.562 11.4474 154.437 11.963L149.871 30.8432L145.704 11.9853C145.588 11.4592 145.122 11.0842 144.583 11.0842H137.786L144.734 33.8573C145.029 34.8239 145.921 35.4842 146.931 35.4842H147.711C146.224 39.0651 143.982 40.0404 139.854 40.5855L140.473 44.6289C140.564 45.2242 141.103 45.6617 141.702 45.602C148.14 44.9578 152.399 41.8827 154.374 35.5305L162.14 11.0842L155.554 11.0842Z" fill="#BDB4FE"/>
<path d="M165.207 4.78845L165.207 35.4832H171.594C172.229 35.4832 172.743 34.9688 172.743 34.3344L172.743 22.8469H179.722C180.602 22.8469 181.341 22.1832 181.435 21.3081L181.848 17.4711H172.743V9.01544H181.913C182.768 9.01544 183.495 8.38719 183.618 7.54023L184.185 3.63965H166.356C165.721 3.63965 165.207 4.15407 165.207 4.78845ZM207.402 27.3037V11.0832H202.99C201.895 11.0832 200.952 11.8559 200.737 12.9294L200.693 13.1506C199.161 11.2525 197.726 10.3023 195.245 10.3023C188.551 10.3023 185.09 16.2949 185.09 23.2146C185.09 30.1091 187.632 36.264 194.51 36.264C197.477 36.264 199.462 34.733 201.061 32.5428C201.736 33.8144 202.757 34.6633 203.968 35.2516C205.643 36.0646 207.661 35.2801 208.358 33.5538L209.378 31.026C207.734 30.2034 207.402 29.1776 207.402 27.3037ZM199.712 28.9173C198.78 30.2619 197.971 30.9343 196.532 30.9343C193.039 30.9343 192.626 26.7675 192.626 23.2609C192.626 19.757 193.352 15.5863 196.853 15.5863C197.932 15.5863 198.559 15.9055 199.52 16.917C199.92 17.338 200.142 17.9063 200.142 18.4871L200.142 27.5802C200.142 28.0581 199.985 28.5245 199.712 28.9173ZM223.052 11.221C221.841 11.8347 220.716 12.7537 219.675 13.9783L219.501 12.9855C219.309 11.8855 218.354 11.0832 217.238 11.0832H212.828L212.828 34.3344C212.828 34.9688 213.342 35.4832 213.977 35.4832H220.088V19.5092C220.088 19.0495 220.217 18.5903 220.484 18.2159C221.711 16.493 222.989 15.6321 224.316 15.6321C226.217 15.6321 226.613 17.0094 226.613 18.8944V34.3344C226.613 34.9688 227.128 35.4832 227.762 35.4832H233.873V17.6546C233.873 10.2753 227.419 9.01042 223.052 11.221ZM246.68 19.3544C245.66 18.9114 244.989 18.5122 244.937 17.4683C244.889 16.5201 245.647 15.7018 246.588 15.5785C248.749 15.2951 250.892 15.7247 253.019 16.8677C253.531 17.143 254.172 16.9522 254.489 16.4651L256.559 13.2887C254.042 11.2374 250.82 10.3021 247.598 10.3021C242.482 10.3021 237.627 12.8415 237.627 17.7456C237.627 24.4565 245.124 25.1874 248.196 26.4534C249.391 26.948 249.954 27.4396 249.986 28.6618C250.015 29.7693 249.188 30.7557 248.094 30.9354C245.511 31.36 243.061 30.7953 240.744 29.2417C240.281 28.9312 239.654 29.0356 239.282 29.451L236.433 32.6338C239.144 35.1451 242.967 36.2637 246.634 36.2637C252.147 36.2637 257.478 33.6749 257.478 28.2227C257.478 21.466 251.004 21.2361 246.68 19.3544Z" fill="#BDB4FE"/>
</svg>
