<svg width="207" height="40" viewBox="0 0 207 40" fill="none" xmlns="http://www.w3.org/2000/svg">
<g clip-path="url(#clip0_8831_1941)">
<path fill-rule="evenodd" clip-rule="evenodd" d="M20.0705 8.39858C18.925 11.2285 18.7229 14.7323 18.5881 17.8318C18.5207 18.8425 18.0491 18.236 17.9143 18.1013C16.0277 14.867 12.2544 9.20714 10.0309 7.45526C8.34636 5.77076 3.36025 1.79535 1.00195 0.447748C1.74313 11.5654 9.62658 16.4842 14.8822 17.9665C15.017 18.0339 15.017 18.1687 14.9496 18.1687C12.3218 18.236 10.4351 19.0446 8.95278 19.8532C5.65117 21.6724 4.64047 24.5698 4.77523 26.2542C4.97737 28.6799 8.5485 31.0382 11.648 31.4425C11.3785 31.9142 10.5699 32.6553 10.9068 33.8682C11.1763 34.8115 11.3111 35.0136 12.1196 34.6094C12.9282 34.2051 14.2758 33.4639 14.6127 33.2618C14.9496 33.0596 15.4212 32.7227 15.6908 32.9249C16.0277 33.127 15.8929 33.3965 15.6908 33.666C15.4886 33.8682 15.1517 35.081 15.556 35.2158C15.8255 35.2832 19.3293 33.9356 21.2159 33.0596C22.2266 32.5206 22.294 32.3184 22.6309 31.173C24.4502 25.2435 23.2373 21.8746 20.6769 19.5163C22.9678 17.2927 24.4502 15.5408 25.4609 11.835C25.9325 10.1505 25.9999 7.92692 26.2694 5.50124C26.4042 3.81674 26.6063 2.06487 26.8085 0.312988C23.9785 2.26701 21.4181 5.09696 20.0705 8.39858ZM10.6373 24.974C9.69396 24.974 8.95278 24.2329 8.95278 23.2895C8.95278 22.3462 9.69396 21.605 10.6373 21.605C11.5806 21.605 12.3218 22.3462 12.3218 23.2895C12.3218 24.1655 11.5806 24.974 10.6373 24.974Z" fill="#BDB4FE"/>
<path fill-rule="evenodd" clip-rule="evenodd" d="M8.41211 34.3398L8.61425 38.9891C9.15329 38.5848 9.62495 38.1805 10.164 37.7762C11.3768 36.9677 11.579 37.3046 12.657 38.2479L14.2742 39.9998L14.2068 34.6767C13.7351 34.9463 13.3982 35.2832 12.9266 35.6201C11.3094 36.6981 11.3768 36.7655 9.82709 35.6201L8.41211 34.3398ZM15.5544 36.5634L15.6218 37.7762L21.9555 36.0243L21.8881 34.8789L15.5544 36.5634Z" fill="#BDB4FE"/>
<path fill-rule="evenodd" clip-rule="evenodd" d="M106.855 9.74607V15.2038H108.203L115.345 25.7151V30.1622H112.448V35.6199H126.328V30.2296H123.363V25.513L129.765 15.2712H131.045V9.74607H121.881V15.2712H123.768L120.803 20.19L117.973 15.2712H119.994V9.74607H106.855ZM106.586 30.2969L100.387 9.67869H92.1665L85.4959 30.2969H83.8788V35.5526H93.312V30.2969H90.9537L91.6949 28.006H97.8264L98.5676 30.2969H96.0072V35.5526H108.001V30.2969H106.586ZM93.3794 22.5482L95.266 16.3493L97.0853 22.5482H93.3794ZM169.721 9.13965C162.848 9.13965 157.188 15.2038 157.188 22.7504C157.188 30.2969 162.781 36.3611 169.721 36.3611C176.661 36.3611 182.253 30.2969 182.253 22.7504C182.253 15.2712 176.661 9.13965 169.721 9.13965ZM169.856 31.1055C168.238 31.1055 166.419 29.3536 166.419 22.8851C166.419 16.4167 168.238 14.6648 169.856 14.6648C171.473 14.6648 173.292 16.4167 173.292 22.8851C173.292 29.3536 171.405 31.1055 169.856 31.1055ZM150.518 22.5482C152.067 21.8744 155.571 20.7964 155.436 15.7429C155.436 11.9696 151.933 9.67869 148.024 9.67869H133.74V15.2712H135.829V30.2969H133.74V35.6873H148.968C153.415 35.6873 155.975 31.2403 155.975 28.4777C155.975 25.6477 154.965 23.8285 150.518 22.5482ZM145.397 30.4991H143.645V25.3108H145.397C146.744 25.3108 147.822 26.4563 147.822 27.9386C147.755 29.3536 146.677 30.4991 145.397 30.4991ZM145.397 19.9204H143.645V15.2712H145.397C146.744 15.2712 147.822 16.3493 147.822 17.6295C147.755 18.9771 146.677 19.9204 145.397 19.9204ZM51.2669 9.67869H36.5781V15.5407H39.0038V30.2296H36.5781V35.7547H49.6498V30.2296H47.2241V26.5237H51.3343C55.6466 26.5237 59.1504 22.5482 59.1504 17.9664C59.083 13.3172 55.5793 9.67869 51.2669 9.67869ZM48.976 20.9311H47.2241V15.3386H49.0434C50.1889 15.3386 51.1322 16.6188 51.1322 18.1686C51.0648 19.6509 50.1215 20.9311 48.976 20.9311ZM60.8349 9.67869V15.3386H63.1258V30.2969H60.8349V35.5526H81.6553V26.052H75.928V30.2969H71.4135V15.3386H74.513V9.67869H60.8349ZM182.59 9.74607V15.2038H184.005L191.08 25.7151V30.1622H188.183V35.6199H202.131V30.2296H199.166V25.513L205.567 15.2712H206.847V9.74607H197.616V15.2712H199.503L196.538 20.19L193.708 15.2712H195.729V9.74607H182.59Z" fill="#BDB4FE"/>
</g>
<defs>
<clipPath id="clip0_8831_1941">
<rect width="206" height="39.552" fill="white" transform="translate(0.923828 0.380371)"/>
</clipPath>
</defs>
</svg>
