<svg width="100" height="63" viewBox="0 0 100 63" fill="none" xmlns="http://www.w3.org/2000/svg">
<g clip-path="url(#clip0_8831_1959)">
<path d="M98.6142 39.75C98.1538 39.75 97.6933 40.0954 97.6933 40.6709V40.9012C96.8875 39.9802 95.7363 39.5198 94.5852 39.5198C91.8224 39.5198 89.8654 41.8221 89.8654 44.4698C89.8654 47.1174 91.8224 49.4198 94.5852 49.4198C95.8514 49.4198 96.8875 48.9593 97.6933 48.0384V48.2686C97.6933 48.7291 98.0386 49.1895 98.6142 49.1895C99.0747 49.1895 99.5351 48.8442 99.5351 48.2686V40.4407C99.5351 40.2105 99.1898 39.75 98.6142 39.75ZM94.8154 47.9233C93.0886 47.9233 91.7072 46.5419 91.7072 44.5849C91.7072 42.6279 93.0886 41.2465 94.8154 41.2465C96.5421 41.2465 97.8084 42.6279 97.8084 44.5849C97.8084 46.5419 96.427 47.9233 94.8154 47.9233ZM80.8863 36.2965C80.4259 36.2965 79.9654 36.6419 79.9654 37.2174V41.0163C79.1596 40.0954 78.0084 39.6349 76.8572 39.6349C74.0945 39.6349 72.1375 41.9372 72.1375 44.5849C72.1375 47.2326 74.0945 49.5349 76.8572 49.5349C78.1235 49.5349 79.1596 49.0744 79.9654 48.1535V48.3837C79.9654 48.8442 80.3107 49.3047 80.8863 49.3047C81.3468 49.3047 81.8072 48.9593 81.8072 48.3837V36.9872C81.8072 36.757 81.3468 36.2965 80.8863 36.2965ZM76.9724 47.9233C75.2456 47.9233 73.8642 46.5419 73.8642 44.5849C73.8642 42.6279 75.2456 41.2465 76.9724 41.2465C78.6991 41.2465 79.9654 42.6279 79.9654 44.5849C79.9654 46.5419 78.6991 47.9233 76.9724 47.9233ZM65.5759 39.6349C62.8131 39.6349 60.741 41.9372 60.741 44.5849C60.741 47.2326 62.8131 49.5349 65.5759 49.5349C66.8421 49.5349 68.2235 49.1895 69.0293 48.3837C69.3747 48.0384 69.3747 47.5779 69.1445 47.2326C68.7991 46.8872 68.3386 46.8872 67.9933 47.2326C67.3026 47.693 66.3817 47.9233 65.5759 47.9233C64.1945 47.9233 62.9282 46.8872 62.5828 45.5058H69.2596C69.72 45.5058 70.0654 45.1605 70.0654 44.7C70.0654 41.9372 68.3386 39.6349 65.5759 39.6349ZM62.5828 43.7791C62.9282 42.2826 64.0793 41.2465 65.5759 41.2465C67.0724 41.2465 67.9933 42.2826 68.2235 43.7791H62.5828ZM54.5247 39.6349C53.1433 39.6349 52.2224 40.2105 51.4165 41.1314C50.7259 40.2105 49.8049 39.6349 48.4235 39.6349C46.0061 39.6349 44.5096 41.3616 44.5096 43.8942V48.614C44.5096 49.0744 44.8549 49.5349 45.4305 49.5349C45.891 49.5349 46.3514 49.1895 46.3514 48.614V44.0093C46.3514 42.3977 47.0421 41.3616 48.5386 41.3616C49.92 41.3616 50.7258 42.3977 50.7258 44.0093V48.614C50.7258 49.0744 51.0712 49.5349 51.6468 49.5349C52.1073 49.5349 52.5677 49.1895 52.5677 48.614V44.0093C52.5677 42.3977 53.2584 41.3616 54.7549 41.3616C56.1363 41.3616 56.9421 42.3977 56.9421 44.0093V48.614C56.9421 49.0744 57.2875 49.5349 57.8631 49.5349C58.3235 49.5349 58.784 49.1895 58.784 48.614V43.8942C58.4386 41.3616 56.827 39.6349 54.5247 39.6349ZM86.1817 39.75C85.7212 39.75 85.2607 40.0954 85.2607 40.6709V48.4988C85.2607 48.9593 85.6061 49.4198 86.1817 49.4198C86.6421 49.4198 87.1026 49.0744 87.1026 48.4988V40.6709C87.1026 40.2105 86.7572 39.75 86.1817 39.75ZM86.1817 36.2965C85.6061 36.2965 85.1456 36.757 85.1456 37.3326C85.1456 37.9081 85.6061 38.3686 86.1817 38.3686C86.7572 38.3686 87.2177 37.9081 87.2177 37.3326C87.2177 36.757 86.7572 36.2965 86.1817 36.2965ZM65.4607 28.1233C65.9212 28.1233 66.3817 27.7779 66.3817 27.2023V15.9209C66.3817 15.4605 66.0363 15 65.4607 15C64.8852 15 64.5398 15.3453 64.5398 15.9209V27.3174C64.5398 27.6628 64.8852 28.1233 65.4607 28.1233ZM45.3154 28.1233C45.7759 28.1233 46.2363 27.7779 46.2363 27.2023V20.1802H48.884C49.3445 20.1802 49.8049 19.8349 49.6898 19.2593C49.6898 18.7988 49.3445 18.4535 48.884 18.4535H46.3514V15.9209C46.2363 15.4605 45.891 15 45.4305 15C44.97 15 44.5096 15.3453 44.5096 15.9209V27.2023C44.5096 27.6628 44.8549 28.1233 45.3154 28.1233ZM59.82 18.4535C59.3596 18.4535 58.8991 18.7988 58.8991 19.3744V19.6047C58.0933 18.7988 57.0572 18.2233 55.791 18.2233C53.0282 18.2233 51.0712 20.5256 51.0712 23.1733C51.0712 25.8209 53.0282 28.1233 55.791 28.1233C57.0572 28.1233 58.0933 27.6628 58.8991 26.7419V26.9721C58.8991 27.4326 59.2445 27.893 59.82 27.893C60.3956 27.893 60.741 27.5477 60.741 26.9721V19.3744C60.741 18.7988 60.2805 18.4535 59.82 18.4535ZM55.9061 26.6267C54.1793 26.6267 52.7979 25.2453 52.7979 23.2884C52.7979 21.4465 54.1793 19.95 55.9061 19.95C57.6328 19.95 58.8991 21.3314 58.8991 23.2884C59.0142 25.1302 57.6328 26.6267 55.9061 26.6267ZM90.0956 26.9721V27.2023C90.0956 27.6628 90.441 28.1233 91.0165 28.1233C91.477 28.1233 91.9375 27.7779 91.9375 27.2023V19.3744C91.8224 18.7988 91.477 18.4535 90.9014 18.4535C90.441 18.4535 89.9805 18.7988 89.9805 19.3744V19.6047C89.1747 18.6837 88.0235 18.2233 86.8724 18.2233C84.1096 18.2233 82.1526 20.5256 82.1526 23.1733C82.1526 25.8209 84.1096 28.1233 86.8724 28.1233C88.1386 28.2384 89.2898 27.7779 90.0956 26.9721ZM83.8793 23.2884C83.8793 21.4465 85.2607 19.95 86.9875 19.95C88.7142 19.95 89.9805 21.3314 89.9805 23.2884C89.9805 25.2453 88.7142 26.6267 86.9875 26.6267C85.3758 26.6267 83.8793 25.1302 83.8793 23.2884ZM79.7352 23.2884C79.7352 20.6407 77.7782 18.3384 75.0154 18.3384C73.7491 18.3384 72.7131 18.7988 71.9072 19.7198V19.3744C71.9072 18.7988 71.4468 18.4535 70.9863 18.4535C70.5258 18.4535 70.0654 18.7988 70.0654 19.3744V31.0012C70.0654 31.4616 70.4107 31.9221 70.9863 31.9221C71.5619 31.9221 71.9072 31.5767 71.9072 31.0012V26.9721C72.7131 27.893 73.8642 28.3535 75.0154 28.3535C77.7782 28.2384 79.7352 25.936 79.7352 23.2884ZM71.9072 23.2884C71.9072 21.3314 73.1735 19.95 74.9003 19.95C76.627 19.95 78.0084 21.3314 78.0084 23.2884C78.0084 25.1302 76.627 26.6267 74.9003 26.6267C73.1735 26.6267 71.9072 25.1302 71.9072 23.2884ZM5.37004 15.4605C2.72237 15.4605 0.535156 17.6477 0.535156 20.4105C0.535156 23.1733 2.72237 25.3605 5.37004 25.3605C8.13283 25.3605 10.32 23.0581 10.32 20.4105C10.32 17.7628 8.13283 15.4605 5.37004 15.4605ZM17.6875 15.4605C15.0398 15.4605 12.8526 17.6477 12.8526 20.4105C12.8526 23.1733 14.9247 25.3605 17.6875 25.3605C20.3352 25.3605 22.5224 23.1733 22.5224 20.4105C22.5224 17.6477 20.3352 15.4605 17.6875 15.4605ZM29.8898 15.4605C27.2421 15.4605 25.0549 17.6477 25.0549 20.4105C25.0549 23.1733 27.127 25.3605 29.8898 25.3605C32.5375 25.3605 34.7247 23.1733 34.7247 20.4105C34.7247 17.6477 32.5375 15.4605 29.8898 15.4605ZM5.37004 27.7779C2.72237 27.7779 0.535156 29.9651 0.535156 32.7279C0.535156 35.4907 2.72237 37.6779 5.37004 37.6779C8.01771 37.6779 10.2049 35.4907 10.2049 32.7279C10.32 29.9651 8.13283 27.7779 5.37004 27.7779ZM17.6875 27.7779C15.0398 27.7779 12.8526 29.9651 12.8526 32.7279C12.8526 35.4907 15.0398 37.6779 17.6875 37.6779C20.3352 37.6779 22.5224 35.4907 22.5224 32.7279C22.5224 29.9651 20.3352 27.7779 17.6875 27.7779ZM29.8898 27.7779C27.2421 27.7779 25.0549 29.9651 25.0549 32.7279C25.0549 35.4907 27.2421 37.6779 29.8898 37.6779C32.5375 37.6779 34.7247 35.4907 34.7247 32.7279C34.7247 29.9651 32.5375 27.7779 29.8898 27.7779ZM5.37004 40.0954C2.72237 40.0954 0.535156 42.2826 0.535156 44.9302C0.535156 47.693 2.72237 49.8802 5.37004 49.8802C8.01771 49.8802 10.2049 47.693 10.2049 44.9302C10.32 42.2826 8.13283 40.0954 5.37004 40.0954ZM17.6875 40.0954C15.0398 40.0954 12.8526 42.2826 12.8526 45.0454C12.8526 47.8081 15.0398 49.9953 17.6875 49.9953C20.3352 49.9953 22.5224 47.8081 22.5224 45.0454C22.5224 42.2826 20.3352 40.0954 17.6875 40.0954ZM29.8898 40.0954C27.2421 40.0954 25.0549 42.2826 25.0549 45.0454C25.0549 47.8081 27.2421 49.9953 29.8898 49.9953C32.5375 49.9953 34.7247 47.8081 34.7247 45.0454C34.7247 42.2826 32.5375 40.0954 29.8898 40.0954ZM17.6875 52.4128C15.0398 52.4128 12.8526 54.6 12.8526 57.3628C12.8526 60.1256 15.0398 62.3128 17.6875 62.3128C20.3352 62.3128 22.5224 60.1256 22.5224 57.3628C22.5224 54.6 20.3352 52.4128 17.6875 52.4128Z" fill="#BDB4FE"/>
</g>
<defs>
<clipPath id="clip0_8831_1959">
<rect width="99" height="62.3128" fill="white" transform="translate(0.535156)"/>
</clipPath>
</defs>
</svg>
